<svg xmlns="http://www.w3.org/2000/svg" version="1.1" xmlns:xlink="http://www.w3.org/1999/xlink" xmlns:svgjs="http://svgjs.dev/svgjs" width="1440" height="2000" preserveAspectRatio="none" viewBox="0 0 1440 2000"><g mask="url(&quot;#SvgjsMask1051&quot;)" fill="none"><rect width="1440" height="2000" x="0" y="0" fill="rgba(255, 255, 255, 1)"></rect><path d="M174 284L-777 1235" stroke-width="8" stroke="url(&quot;#SvgjsLinearGradient1052&quot;)" stroke-linecap="round" class="TopRight"></path><path d="M1103 110L1831 -618" stroke-width="10" stroke="url(&quot;#SvgjsLinearGradient1053&quot;)" stroke-linecap="round" class="BottomLeft"></path><path d="M818 1468L-220 2506" stroke-width="6" stroke="url(&quot;#SvgjsLinearGradient1052&quot;)" stroke-linecap="round" class="TopRight"></path><path d="M933 1243L1973 203" stroke-width="6" stroke="url(&quot;#SvgjsLinearGradient1053&quot;)" stroke-linecap="round" class="BottomLeft"></path><path d="M1047 1825L387 2485" stroke-width="10" stroke="url(&quot;#SvgjsLinearGradient1052&quot;)" stroke-linecap="round" class="TopRight"></path><path d="M592 117L1485 -776" stroke-width="10" stroke="url(&quot;#SvgjsLinearGradient1052&quot;)" stroke-linecap="round" class="TopRight"></path><path d="M170 574L1106 -362" stroke-width="8" stroke="url(&quot;#SvgjsLinearGradient1052&quot;)" stroke-linecap="round" class="TopRight"></path><path d="M984 1765L173 2576" stroke-width="8" stroke="url(&quot;#SvgjsLinearGradient1052&quot;)" stroke-linecap="round" class="TopRight"></path><path d="M325 733L-253 1311" stroke-width="8" stroke="url(&quot;#SvgjsLinearGradient1052&quot;)" stroke-linecap="round" class="TopRight"></path><path d="M114 36L577 -427" stroke-width="10" stroke="url(&quot;#SvgjsLinearGradient1052&quot;)" stroke-linecap="round" class="TopRight"></path><path d="M205 1124L-824 2153" stroke-width="6" stroke="url(&quot;#SvgjsLinearGradient1052&quot;)" stroke-linecap="round" class="TopRight"></path><path d="M841 1087L321 1607" stroke-width="6" stroke="url(&quot;#SvgjsLinearGradient1052&quot;)" stroke-linecap="round" class="TopRight"></path><path d="M175 77L569 -317" stroke-width="6" stroke="url(&quot;#SvgjsLinearGradient1052&quot;)" stroke-linecap="round" class="TopRight"></path><path d="M443 1311L-586 2340" stroke-width="6" stroke="url(&quot;#SvgjsLinearGradient1053&quot;)" stroke-linecap="round" class="BottomLeft"></path><path d="M1152 780L629 1303" stroke-width="10" stroke="url(&quot;#SvgjsLinearGradient1053&quot;)" stroke-linecap="round" class="BottomLeft"></path><path d="M1073 4L524 553" stroke-width="6" stroke="url(&quot;#SvgjsLinearGradient1053&quot;)" stroke-linecap="round" class="BottomLeft"></path><path d="M1259 743L2011 -9" stroke-width="6" stroke="url(&quot;#SvgjsLinearGradient1053&quot;)" stroke-linecap="round" class="BottomLeft"></path><path d="M455 63L926 -408" stroke-width="6" stroke="url(&quot;#SvgjsLinearGradient1053&quot;)" stroke-linecap="round" class="BottomLeft"></path><path d="M619 825L-256 1700" stroke-width="10" stroke="url(&quot;#SvgjsLinearGradient1053&quot;)" stroke-linecap="round" class="BottomLeft"></path><path d="M183 1140L552 771" stroke-width="10" stroke="url(&quot;#SvgjsLinearGradient1052&quot;)" stroke-linecap="round" class="TopRight"></path><path d="M219 478L985 -288" stroke-width="10" stroke="url(&quot;#SvgjsLinearGradient1053&quot;)" stroke-linecap="round" class="BottomLeft"></path><path d="M887 1058L1761 184" stroke-width="8" stroke="url(&quot;#SvgjsLinearGradient1052&quot;)" stroke-linecap="round" class="TopRight"></path><path d="M1173 1199L713 1659" stroke-width="8" stroke="url(&quot;#SvgjsLinearGradient1053&quot;)" stroke-linecap="round" class="BottomLeft"></path><path d="M674 1987L-397 3058" stroke-width="6" stroke="url(&quot;#SvgjsLinearGradient1052&quot;)" stroke-linecap="round" class="TopRight"></path><path d="M452 165L1027 -410" stroke-width="6" stroke="url(&quot;#SvgjsLinearGradient1053&quot;)" stroke-linecap="round" class="BottomLeft"></path><path d="M218 1386L1217 387" stroke-width="8" stroke="url(&quot;#SvgjsLinearGradient1053&quot;)" stroke-linecap="round" class="BottomLeft"></path><path d="M778 1049L1509 318" stroke-width="10" stroke="url(&quot;#SvgjsLinearGradient1053&quot;)" stroke-linecap="round" class="BottomLeft"></path><path d="M1140 202L1805 -463" stroke-width="10" stroke="url(&quot;#SvgjsLinearGradient1052&quot;)" stroke-linecap="round" class="TopRight"></path><path d="M862 42L1810 -906" stroke-width="6" stroke="url(&quot;#SvgjsLinearGradient1053&quot;)" stroke-linecap="round" class="BottomLeft"></path><path d="M213 523L-490 1226" stroke-width="8" stroke="url(&quot;#SvgjsLinearGradient1052&quot;)" stroke-linecap="round" class="TopRight"></path><path d="M1379 28L503 904" stroke-width="8" stroke="url(&quot;#SvgjsLinearGradient1053&quot;)" stroke-linecap="round" class="BottomLeft"></path><path d="M3 1539L-494 2036" stroke-width="10" stroke="url(&quot;#SvgjsLinearGradient1053&quot;)" stroke-linecap="round" class="BottomLeft"></path><path d="M1273 1470L897 1846" stroke-width="8" stroke="url(&quot;#SvgjsLinearGradient1052&quot;)" stroke-linecap="round" class="TopRight"></path><path d="M746 1464L1270 940" stroke-width="8" stroke="url(&quot;#SvgjsLinearGradient1052&quot;)" stroke-linecap="round" class="TopRight"></path><path d="M773 1338L1240 871" stroke-width="8" stroke="url(&quot;#SvgjsLinearGradient1052&quot;)" stroke-linecap="round" class="TopRight"></path><path d="M347 605L-574 1526" stroke-width="10" stroke="url(&quot;#SvgjsLinearGradient1052&quot;)" stroke-linecap="round" class="TopRight"></path><path d="M951 439L-69 1459" stroke-width="8" stroke="url(&quot;#SvgjsLinearGradient1053&quot;)" stroke-linecap="round" class="BottomLeft"></path><path d="M174 1814L-681 2669" stroke-width="10" stroke="url(&quot;#SvgjsLinearGradient1053&quot;)" stroke-linecap="round" class="BottomLeft"></path><path d="M110 602L-621 1333" stroke-width="6" stroke="url(&quot;#SvgjsLinearGradient1052&quot;)" stroke-linecap="round" class="TopRight"></path><path d="M1074 375L437 1012" stroke-width="8" stroke="url(&quot;#SvgjsLinearGradient1052&quot;)" stroke-linecap="round" class="TopRight"></path><path d="M89 691L-818 1598" stroke-width="8" stroke="url(&quot;#SvgjsLinearGradient1052&quot;)" stroke-linecap="round" class="TopRight"></path><path d="M1333 854L481 1706" stroke-width="10" stroke="url(&quot;#SvgjsLinearGradient1053&quot;)" stroke-linecap="round" class="BottomLeft"></path><path d="M1207 159L758 608" stroke-width="10" stroke="url(&quot;#SvgjsLinearGradient1053&quot;)" stroke-linecap="round" class="BottomLeft"></path><path d="M1296 808L2275 -171" stroke-width="10" stroke="url(&quot;#SvgjsLinearGradient1053&quot;)" stroke-linecap="round" class="BottomLeft"></path><path d="M304 109L1311 -898" stroke-width="6" stroke="url(&quot;#SvgjsLinearGradient1052&quot;)" stroke-linecap="round" class="TopRight"></path><path d="M304 1758L737 1325" stroke-width="6" stroke="url(&quot;#SvgjsLinearGradient1052&quot;)" stroke-linecap="round" class="TopRight"></path><path d="M507 906L-36 1449" stroke-width="6" stroke="url(&quot;#SvgjsLinearGradient1052&quot;)" stroke-linecap="round" class="TopRight"></path><path d="M529 1630L1220 939" stroke-width="8" stroke="url(&quot;#SvgjsLinearGradient1053&quot;)" stroke-linecap="round" class="BottomLeft"></path><path d="M200 1429L1280 349" stroke-width="8" stroke="url(&quot;#SvgjsLinearGradient1053&quot;)" stroke-linecap="round" class="BottomLeft"></path><path d="M1019 849L1855 13" stroke-width="8" stroke="url(&quot;#SvgjsLinearGradient1052&quot;)" stroke-linecap="round" class="TopRight"></path><path d="M1233 144L661 716" stroke-width="10" stroke="url(&quot;#SvgjsLinearGradient1053&quot;)" stroke-linecap="round" class="BottomLeft"></path><path d="M1101 1131L229 2003" stroke-width="10" stroke="url(&quot;#SvgjsLinearGradient1053&quot;)" stroke-linecap="round" class="BottomLeft"></path><path d="M814 1092L1300 606" stroke-width="8" stroke="url(&quot;#SvgjsLinearGradient1052&quot;)" stroke-linecap="round" class="TopRight"></path><path d="M1183 992L508 1667" stroke-width="10" stroke="url(&quot;#SvgjsLinearGradient1052&quot;)" stroke-linecap="round" class="TopRight"></path><path d="M461 1186L1400 247" stroke-width="6" stroke="url(&quot;#SvgjsLinearGradient1053&quot;)" stroke-linecap="round" class="BottomLeft"></path><path d="M669 291L1488 -528" stroke-width="6" stroke="url(&quot;#SvgjsLinearGradient1052&quot;)" stroke-linecap="round" class="TopRight"></path><path d="M176 1884L864 1196" stroke-width="6" stroke="url(&quot;#SvgjsLinearGradient1053&quot;)" stroke-linecap="round" class="BottomLeft"></path><path d="M1343 679L690 1332" stroke-width="8" stroke="url(&quot;#SvgjsLinearGradient1053&quot;)" stroke-linecap="round" class="BottomLeft"></path><path d="M696 1504L1709 491" stroke-width="10" stroke="url(&quot;#SvgjsLinearGradient1053&quot;)" stroke-linecap="round" class="BottomLeft"></path><path d="M322 655L1048 -71" stroke-width="10" stroke="url(&quot;#SvgjsLinearGradient1053&quot;)" stroke-linecap="round" class="BottomLeft"></path><path d="M723 343L-175 1241" stroke-width="6" stroke="url(&quot;#SvgjsLinearGradient1052&quot;)" stroke-linecap="round" class="TopRight"></path><path d="M1300 1772L1864 1208" stroke-width="10" stroke="url(&quot;#SvgjsLinearGradient1052&quot;)" stroke-linecap="round" class="TopRight"></path></g><defs><mask id="SvgjsMask1051"><rect width="1440" height="2000" fill="#ffffff"></rect></mask><linearGradient x1="0%" y1="100%" x2="100%" y2="0%" id="SvgjsLinearGradient1052"><stop stop-color="rgba(208, 213, 219, 0)" offset="0"></stop><stop stop-color="rgba(208, 213, 219, 1)" offset="1"></stop></linearGradient><linearGradient x1="100%" y1="0%" x2="0%" y2="100%" id="SvgjsLinearGradient1053"><stop stop-color="rgba(208, 213, 219, 0)" offset="0"></stop><stop stop-color="rgba(208, 213, 219, 1)" offset="1"></stop></linearGradient></defs></svg>