<svg xmlns="http://www.w3.org/2000/svg" version="1.1" xmlns:xlink="http://www.w3.org/1999/xlink" xmlns:svgjs="http://svgjs.dev/svgjs" width="1440" height="2000" preserveAspectRatio="none" viewBox="0 0 1440 2000"><g mask="url(&quot;#SvgjsMask1051&quot;)" fill="none"><path d="M1361.68 530.74a141.14 141.14 0 1 0 45.97 278.51z" stroke="rgba(190, 210, 233, 0.4)"></path><path d="M223.41 892.99L295.79 892.99L295.79 965.37L223.41 965.37z" fill="rgba(190, 210, 233, 0.4)"></path><path d="M445.39 197.76L479 197.76L479 231.37L445.39 231.37z" stroke="rgba(190, 210, 233, 0.4)"></path><path d="M1170.84 745.53L1259.52 745.53L1259.52 831.9L1170.84 831.9z" stroke="rgba(190, 210, 233, 0.4)"></path><path d="M1260.03 1249.79 a53.41 53.41 0 1 0 106.82 0 a53.41 53.41 0 1 0 -106.82 0z" fill="rgba(190, 210, 233, 0.4)"></path><path d="M701.14 595.78 a63.76 63.76 0 1 0 127.52 0 a63.76 63.76 0 1 0 -127.52 0z" fill="rgba(190, 210, 233, 0.4)"></path><path d="M907.11 970.7a74.08 74.08 0 1 0 23.86 146.22z" fill="rgba(190, 210, 233, 0.4)"></path><path d="M635.38 1083.3L778.26 1083.3L778.26 1218.95L635.38 1218.95z" fill="rgba(190, 210, 233, 0.4)"></path><path d="M464.63 1268.79L606.39 1268.79L606.39 1410.55L464.63 1410.55z" fill="rgba(190, 210, 233, 0.4)"></path><path d="M127.27 1805.01 a138.55 138.55 0 1 0 277.1 0 a138.55 138.55 0 1 0 -277.1 0z" fill="rgba(190, 210, 233, 0.4)"></path><path d="M565.54 884.08L690.53 884.08L690.53 895.18L565.54 895.18z" fill="rgba(190, 210, 233, 0.4)"></path><path d="M976.2 848.35a60.84 60.84 0 1 0-107.95 56.15z" stroke="rgba(190, 210, 233, 0.4)"></path><path d="M201.06 245.38L312 245.38L312 329.38L201.06 329.38z" stroke="rgba(190, 210, 233, 0.4)"></path><path d="M440.61 1539.08a98.3 98.3 0 1 0-52.77 189.39z" fill="rgba(190, 210, 233, 0.4)"></path><path d="M274.23 260.17L326.7 260.17L326.7 373.04L274.23 373.04z" fill="rgba(190, 210, 233, 0.4)"></path><path d="M883.59 1966.23L1026.67 1966.23L1026.67 2109.31L883.59 2109.31z" stroke="rgba(190, 210, 233, 0.4)"></path><path d="M1127.65 70.26L1162.31 70.26L1162.31 121.17L1127.65 121.17z" stroke="rgba(190, 210, 233, 0.4)"></path><path d="M204.08 172.06 a134.82 134.82 0 1 0 269.64 0 a134.82 134.82 0 1 0 -269.64 0z" stroke="rgba(190, 210, 233, 0.4)"></path></g><defs><mask id="SvgjsMask1051"><rect width="1440" height="2000" fill="#ffffff"></rect></mask></defs></svg>