<svg xmlns="http://www.w3.org/2000/svg" version="1.1" xmlns:xlink="http://www.w3.org/1999/xlink" xmlns:svgjs="http://svgjs.dev/svgjs" width="1440" height="800" preserveAspectRatio="none" viewBox="0 0 1440 800"><g mask="url(&quot;#SvgjsMask1142&quot;)" fill="none"><rect width="1440" height="800" x="0" y="0" fill="rgba(255, 255, 255, 1)"></rect><path d="M35.45 -59.97L117.72 -12.47L117.72 82.53L35.45 130.03L-46.82 82.53L-46.82 -12.47zM35.45 510.03L117.72 557.53L117.72 652.53L35.45 700.03L-46.82 652.53L-46.82 557.53zM200 225.03L282.27 272.53L282.27 367.53L200 415.03L117.72 367.53L117.72 272.53zM364.55 225.03L446.82 272.53L446.82 367.53L364.55 415.03L282.27 367.53L282.27 272.53zM611.37 367.53L693.65 415.03L693.65 510.03L611.37 557.53L529.1 510.03L529.1 415.03zM693.65 225.03L775.92 272.53L775.92 367.53L693.65 415.03L611.37 367.53L611.37 272.53zM858.2 225.03L940.47 272.53L940.47 367.53L858.2 415.03L775.92 367.53L775.92 272.53zM940.47 652.53L1022.75 700.03L1022.75 795.03L940.47 842.53L858.2 795.03L858.2 700.03zM1105.02 367.53L1187.3 415.03L1187.3 510.03L1105.02 557.53L1022.75 510.03L1022.75 415.03zM1022.75 795.03L1105.02 842.53L1105.02 937.53L1022.75 985.03L940.47 937.53L940.47 842.53zM1187.3 -59.97L1269.57 -12.47L1269.57 82.53L1187.3 130.03L1105.02 82.53L1105.02 -12.47zM1269.57 652.53L1351.85 700.03L1351.85 795.03L1269.57 842.53L1187.3 795.03L1187.3 700.03zM1434.12 367.53L1516.4 415.03L1516.4 510.03L1434.12 557.53L1351.85 510.03L1351.85 415.03z" stroke="rgba(212, 214, 217, 1)" stroke-width="2"></path><path d="M25.95 -59.97 a9.5 9.5 0 1 0 19 0 a9.5 9.5 0 1 0 -19 0zM108.22 -12.47 a9.5 9.5 0 1 0 19 0 a9.5 9.5 0 1 0 -19 0zM108.22 82.53 a9.5 9.5 0 1 0 19 0 a9.5 9.5 0 1 0 -19 0zM25.95 130.03 a9.5 9.5 0 1 0 19 0 a9.5 9.5 0 1 0 -19 0zM-56.32 82.53 a9.5 9.5 0 1 0 19 0 a9.5 9.5 0 1 0 -19 0zM-56.32 -12.47 a9.5 9.5 0 1 0 19 0 a9.5 9.5 0 1 0 -19 0zM25.95 510.03 a9.5 9.5 0 1 0 19 0 a9.5 9.5 0 1 0 -19 0zM108.22 557.53 a9.5 9.5 0 1 0 19 0 a9.5 9.5 0 1 0 -19 0zM108.22 652.53 a9.5 9.5 0 1 0 19 0 a9.5 9.5 0 1 0 -19 0zM25.95 700.03 a9.5 9.5 0 1 0 19 0 a9.5 9.5 0 1 0 -19 0zM-56.32 652.53 a9.5 9.5 0 1 0 19 0 a9.5 9.5 0 1 0 -19 0zM-56.32 557.53 a9.5 9.5 0 1 0 19 0 a9.5 9.5 0 1 0 -19 0zM190.5 225.03 a9.5 9.5 0 1 0 19 0 a9.5 9.5 0 1 0 -19 0zM272.77 272.53 a9.5 9.5 0 1 0 19 0 a9.5 9.5 0 1 0 -19 0zM272.77 367.53 a9.5 9.5 0 1 0 19 0 a9.5 9.5 0 1 0 -19 0zM190.5 415.03 a9.5 9.5 0 1 0 19 0 a9.5 9.5 0 1 0 -19 0zM108.22 367.53 a9.5 9.5 0 1 0 19 0 a9.5 9.5 0 1 0 -19 0zM108.22 272.53 a9.5 9.5 0 1 0 19 0 a9.5 9.5 0 1 0 -19 0zM355.05 225.03 a9.5 9.5 0 1 0 19 0 a9.5 9.5 0 1 0 -19 0zM437.32 272.53 a9.5 9.5 0 1 0 19 0 a9.5 9.5 0 1 0 -19 0zM437.32 367.53 a9.5 9.5 0 1 0 19 0 a9.5 9.5 0 1 0 -19 0zM355.05 415.03 a9.5 9.5 0 1 0 19 0 a9.5 9.5 0 1 0 -19 0zM601.87 367.53 a9.5 9.5 0 1 0 19 0 a9.5 9.5 0 1 0 -19 0zM684.15 415.03 a9.5 9.5 0 1 0 19 0 a9.5 9.5 0 1 0 -19 0zM684.15 510.03 a9.5 9.5 0 1 0 19 0 a9.5 9.5 0 1 0 -19 0zM601.87 557.53 a9.5 9.5 0 1 0 19 0 a9.5 9.5 0 1 0 -19 0zM519.6 510.03 a9.5 9.5 0 1 0 19 0 a9.5 9.5 0 1 0 -19 0zM519.6 415.03 a9.5 9.5 0 1 0 19 0 a9.5 9.5 0 1 0 -19 0zM684.15 225.03 a9.5 9.5 0 1 0 19 0 a9.5 9.5 0 1 0 -19 0zM766.42 272.53 a9.5 9.5 0 1 0 19 0 a9.5 9.5 0 1 0 -19 0zM766.42 367.53 a9.5 9.5 0 1 0 19 0 a9.5 9.5 0 1 0 -19 0zM601.87 272.53 a9.5 9.5 0 1 0 19 0 a9.5 9.5 0 1 0 -19 0zM848.7 225.03 a9.5 9.5 0 1 0 19 0 a9.5 9.5 0 1 0 -19 0zM930.97 272.53 a9.5 9.5 0 1 0 19 0 a9.5 9.5 0 1 0 -19 0zM930.97 367.53 a9.5 9.5 0 1 0 19 0 a9.5 9.5 0 1 0 -19 0zM848.7 415.03 a9.5 9.5 0 1 0 19 0 a9.5 9.5 0 1 0 -19 0zM930.97 652.53 a9.5 9.5 0 1 0 19 0 a9.5 9.5 0 1 0 -19 0zM1013.25 700.03 a9.5 9.5 0 1 0 19 0 a9.5 9.5 0 1 0 -19 0zM1013.25 795.03 a9.5 9.5 0 1 0 19 0 a9.5 9.5 0 1 0 -19 0zM930.97 842.53 a9.5 9.5 0 1 0 19 0 a9.5 9.5 0 1 0 -19 0zM848.7 795.03 a9.5 9.5 0 1 0 19 0 a9.5 9.5 0 1 0 -19 0zM848.7 700.03 a9.5 9.5 0 1 0 19 0 a9.5 9.5 0 1 0 -19 0zM1095.52 367.53 a9.5 9.5 0 1 0 19 0 a9.5 9.5 0 1 0 -19 0zM1177.8 415.03 a9.5 9.5 0 1 0 19 0 a9.5 9.5 0 1 0 -19 0zM1177.8 510.03 a9.5 9.5 0 1 0 19 0 a9.5 9.5 0 1 0 -19 0zM1095.52 557.53 a9.5 9.5 0 1 0 19 0 a9.5 9.5 0 1 0 -19 0zM1013.25 510.03 a9.5 9.5 0 1 0 19 0 a9.5 9.5 0 1 0 -19 0zM1013.25 415.03 a9.5 9.5 0 1 0 19 0 a9.5 9.5 0 1 0 -19 0zM1095.52 842.53 a9.5 9.5 0 1 0 19 0 a9.5 9.5 0 1 0 -19 0zM1095.52 937.53 a9.5 9.5 0 1 0 19 0 a9.5 9.5 0 1 0 -19 0zM1013.25 985.03 a9.5 9.5 0 1 0 19 0 a9.5 9.5 0 1 0 -19 0zM930.97 937.53 a9.5 9.5 0 1 0 19 0 a9.5 9.5 0 1 0 -19 0zM1177.8 -59.97 a9.5 9.5 0 1 0 19 0 a9.5 9.5 0 1 0 -19 0zM1260.07 -12.47 a9.5 9.5 0 1 0 19 0 a9.5 9.5 0 1 0 -19 0zM1260.07 82.53 a9.5 9.5 0 1 0 19 0 a9.5 9.5 0 1 0 -19 0zM1177.8 130.03 a9.5 9.5 0 1 0 19 0 a9.5 9.5 0 1 0 -19 0zM1095.52 82.53 a9.5 9.5 0 1 0 19 0 a9.5 9.5 0 1 0 -19 0zM1095.52 -12.47 a9.5 9.5 0 1 0 19 0 a9.5 9.5 0 1 0 -19 0zM1260.07 652.53 a9.5 9.5 0 1 0 19 0 a9.5 9.5 0 1 0 -19 0zM1342.35 700.03 a9.5 9.5 0 1 0 19 0 a9.5 9.5 0 1 0 -19 0zM1342.35 795.03 a9.5 9.5 0 1 0 19 0 a9.5 9.5 0 1 0 -19 0zM1260.07 842.53 a9.5 9.5 0 1 0 19 0 a9.5 9.5 0 1 0 -19 0zM1177.8 795.03 a9.5 9.5 0 1 0 19 0 a9.5 9.5 0 1 0 -19 0zM1177.8 700.03 a9.5 9.5 0 1 0 19 0 a9.5 9.5 0 1 0 -19 0zM1424.62 367.53 a9.5 9.5 0 1 0 19 0 a9.5 9.5 0 1 0 -19 0zM1506.9 415.03 a9.5 9.5 0 1 0 19 0 a9.5 9.5 0 1 0 -19 0zM1506.9 510.03 a9.5 9.5 0 1 0 19 0 a9.5 9.5 0 1 0 -19 0zM1424.62 557.53 a9.5 9.5 0 1 0 19 0 a9.5 9.5 0 1 0 -19 0zM1342.35 510.03 a9.5 9.5 0 1 0 19 0 a9.5 9.5 0 1 0 -19 0zM1342.35 415.03 a9.5 9.5 0 1 0 19 0 a9.5 9.5 0 1 0 -19 0z" fill="rgba(212, 214, 217, 1)"></path><path d="M17.95 334.37L70.78 364.87L70.78 425.87L17.95 456.37L-34.88 425.87L-34.88 364.87zM17.95 700.37L70.78 730.87L70.78 791.87L17.95 822.37L-34.88 791.87L-34.88 730.87zM70.78 791.87L123.61 822.37L123.61 883.37L70.78 913.87L17.95 883.37L17.95 822.37zM176.44 425.87L229.27 456.37L229.27 517.37L176.44 547.87L123.61 517.37L123.61 456.37zM123.61 517.37L176.44 547.87L176.44 608.87L123.61 639.37L70.78 608.87L70.78 547.87zM176.44 791.87L229.27 822.37L229.27 883.37L176.44 913.87L123.61 883.37L123.61 822.37zM229.27 700.37L282.1 730.87L282.1 791.87L229.27 822.37L176.44 791.87L176.44 730.87zM334.92 -31.63L387.75 -1.13L387.75 59.87L334.92 90.37L282.1 59.87L282.1 -1.13zM387.75 59.87L440.58 90.37L440.58 151.37L387.75 181.87L334.92 151.37L334.92 90.37zM334.92 334.37L387.75 364.87L387.75 425.87L334.92 456.37L282.1 425.87L282.1 364.87zM387.75 425.87L440.58 456.37L440.58 517.37L387.75 547.87L334.92 517.37L334.92 456.37zM599.07 59.87L651.9 90.37L651.9 151.37L599.07 181.87L546.24 151.37L546.24 90.37zM546.24 517.37L599.07 547.87L599.07 608.87L546.24 639.37L493.41 608.87L493.41 547.87zM599.07 791.87L651.9 822.37L651.9 883.37L599.07 913.87L546.24 883.37L546.24 822.37zM704.73 608.87L757.56 639.37L757.56 700.37L704.73 730.87L651.9 700.37L651.9 639.37zM810.39 608.87L863.21 639.37L863.21 700.37L810.39 730.87L757.56 700.37L757.56 639.37zM757.56 700.37L810.39 730.87L810.39 791.87L757.56 822.37L704.73 791.87L704.73 730.87zM863.21 517.37L916.04 547.87L916.04 608.87L863.21 639.37L810.39 608.87L810.39 547.87zM1180.19 -31.63L1233.02 -1.13L1233.02 59.87L1180.19 90.37L1127.36 59.87L1127.36 -1.13zM1180.19 151.37L1233.02 181.87L1233.02 242.87L1180.19 273.37L1127.36 242.87L1127.36 181.87zM1233.02 242.87L1285.85 273.37L1285.85 334.37L1233.02 364.87L1180.19 334.37L1180.19 273.37zM1180.19 517.37L1233.02 547.87L1233.02 608.87L1180.19 639.37L1127.36 608.87L1127.36 547.87zM1233.02 791.87L1285.85 822.37L1285.85 883.37L1233.02 913.87L1180.19 883.37L1180.19 822.37zM1338.68 59.87L1391.51 90.37L1391.51 151.37L1338.68 181.87L1285.85 151.37L1285.85 90.37zM1391.51 -31.63L1444.33 -1.13L1444.33 59.87L1391.51 90.37L1338.68 59.87L1338.68 -1.13zM1391.51 151.37L1444.33 181.87L1444.33 242.87L1391.51 273.37L1338.68 242.87L1338.68 181.87z" stroke="rgba(200, 202, 205, 0.93)" stroke-width="2"></path></g><defs><mask id="SvgjsMask1142"><rect width="1440" height="800" fill="#ffffff"></rect></mask></defs></svg>