<svg xmlns="http://www.w3.org/2000/svg" version="1.1" xmlns:xlink="http://www.w3.org/1999/xlink" xmlns:svgjs="http://svgjs.dev/svgjs" width="1440" height="560" preserveAspectRatio="none" viewBox="0 0 1440 560"><g mask="url(&quot;#SvgjsMask1020&quot;)" fill="none"><rect width="1440" height="560" x="0" y="0" fill="#0e2a47"></rect><path d="M-68.62 392.69L-68.62 392.69" stroke="#132e65" stroke-width="1.5"></path><path d="M-68.62 392.69L-79.49 501.89" stroke="#132e65" stroke-width="1.5"></path><path d="M-68.62 392.69L61.55 347.9" stroke="#132e65" stroke-width="1.5"></path><path d="M-68.62 392.69L93.49 511.43" stroke="#132e65" stroke-width="1.5"></path><path d="M-68.62 392.69L-53.75 675.79" stroke="#132e65" stroke-width="1.5"></path><path d="M-79.49 501.89L-79.49 501.89" stroke="#132e65" stroke-width="1.5"></path><path d="M-53.75 675.79L-53.75 675.79" stroke="#132e65" stroke-width="1.5"></path><path d="M-53.75 675.79L45.76 663.58" stroke="#132e65" stroke-width="1.5"></path><path d="M-53.75 675.79L-79.49 501.89" stroke="#132e65" stroke-width="1.5"></path><path d="M61.55 347.9L61.55 347.9" stroke="#132e65" stroke-width="1.5"></path><path d="M61.55 347.9L218.5 351.86" stroke="#132e65" stroke-width="1.5"></path><path d="M93.49 511.43L93.49 511.43" stroke="#132e65" stroke-width="1.5"></path><path d="M93.49 511.43L215.43 523.81" stroke="#132e65" stroke-width="1.5"></path><path d="M93.49 511.43L45.76 663.58" stroke="#132e65" stroke-width="1.5"></path><path d="M93.49 511.43L61.55 347.9" stroke="#132e65" stroke-width="1.5"></path><path d="M45.76 663.58L45.76 663.58" stroke="#132e65" stroke-width="1.5"></path><path d="M45.76 663.58L218.29 670.92" stroke="#132e65" stroke-width="1.5"></path><path d="M218.5 351.86L218.5 351.86" stroke="#132e65" stroke-width="1.5"></path><path d="M218.5 351.86L366.83 406.44" stroke="#132e65" stroke-width="1.5"></path><path d="M215.43 523.81L215.43 523.81" stroke="#132e65" stroke-width="1.5"></path><path d="M215.43 523.81L218.29 670.92" stroke="#132e65" stroke-width="1.5"></path><path d="M215.43 523.81L369.88 512.72" stroke="#132e65" stroke-width="1.5"></path><path d="M215.43 523.81L218.5 351.86" stroke="#132e65" stroke-width="1.5"></path><path d="M215.43 523.81L366.83 406.44" stroke="#132e65" stroke-width="1.5"></path><path d="M218.29 670.92L218.29 670.92" stroke="#132e65" stroke-width="1.5"></path><path d="M218.29 670.92L402.59 654.51" stroke="#132e65" stroke-width="1.5"></path><path d="M218.29 670.92L93.49 511.43" stroke="#132e65" stroke-width="1.5"></path><path d="M218.29 670.92L369.88 512.72" stroke="#132e65" stroke-width="1.5"></path><path d="M218.29 670.92L-53.75 675.79" stroke="#132e65" stroke-width="1.5"></path><path d="M366.83 406.44L366.83 406.44" stroke="#132e65" stroke-width="1.5"></path><path d="M366.83 406.44L369.88 512.72" stroke="#132e65" stroke-width="1.5"></path><path d="M369.88 512.72L369.88 512.72" stroke="#132e65" stroke-width="1.5"></path><path d="M369.88 512.72L402.59 654.51" stroke="#132e65" stroke-width="1.5"></path><path d="M369.88 512.72L537.47 499.3" stroke="#132e65" stroke-width="1.5"></path><path d="M402.59 654.51L402.59 654.51" stroke="#132e65" stroke-width="1.5"></path><path d="M402.59 654.51L503.85 667.7" stroke="#132e65" stroke-width="1.5"></path><path d="M541.39 405.11L541.39 405.11" stroke="#132e65" stroke-width="1.5"></path><path d="M541.39 405.11L537.47 499.3" stroke="#132e65" stroke-width="1.5"></path><path d="M541.39 405.11L710.86 379.95" stroke="#132e65" stroke-width="1.5"></path><path d="M537.47 499.3L537.47 499.3" stroke="#132e65" stroke-width="1.5"></path><path d="M537.47 499.3L503.85 667.7" stroke="#132e65" stroke-width="1.5"></path><path d="M503.85 667.7L503.85 667.7" stroke="#132e65" stroke-width="1.5"></path><path d="M503.85 667.7L369.88 512.72" stroke="#132e65" stroke-width="1.5"></path><path d="M503.85 667.7L541.39 405.11" stroke="#132e65" stroke-width="1.5"></path><path d="M503.85 667.7L218.29 670.92" stroke="#132e65" stroke-width="1.5"></path><path d="M702.29 201.64L702.29 201.64" stroke="#132e65" stroke-width="1.5"></path><path d="M702.29 201.64L710.86 379.95" stroke="#132e65" stroke-width="1.5"></path><path d="M702.29 201.64L834.85 364.38" stroke="#132e65" stroke-width="1.5"></path><path d="M702.29 201.64L541.39 405.11" stroke="#132e65" stroke-width="1.5"></path><path d="M702.29 201.64L957.33 92.83" stroke="#132e65" stroke-width="1.5"></path><path d="M710.86 379.95L710.86 379.95" stroke="#132e65" stroke-width="1.5"></path><path d="M710.86 379.95L834.85 364.38" stroke="#132e65" stroke-width="1.5"></path><path d="M710.86 379.95L537.47 499.3" stroke="#132e65" stroke-width="1.5"></path><path d="M834.85 364.38L834.85 364.38" stroke="#132e65" stroke-width="1.5"></path><path d="M834.85 364.38L995.97 494.03" stroke="#132e65" stroke-width="1.5"></path><path d="M834.85 364.38L541.39 405.11" stroke="#132e65" stroke-width="1.5"></path><path d="M834.85 364.38L957.33 92.83" stroke="#132e65" stroke-width="1.5"></path><path d="M795.21 687.91L795.21 687.91" stroke="#132e65" stroke-width="1.5"></path><path d="M795.21 687.91L976.24 690.85" stroke="#132e65" stroke-width="1.5"></path><path d="M795.21 687.91L995.97 494.03" stroke="#132e65" stroke-width="1.5"></path><path d="M795.21 687.91L503.85 667.7" stroke="#132e65" stroke-width="1.5"></path><path d="M795.21 687.91L710.86 379.95" stroke="#132e65" stroke-width="1.5"></path><path d="M795.21 687.91L537.47 499.3" stroke="#132e65" stroke-width="1.5"></path><path d="M976.3 -108.04L976.3 -108.04" stroke="#132e65" stroke-width="1.5"></path><path d="M976.3 -108.04L1150.62 -89.83" stroke="#132e65" stroke-width="1.5"></path><path d="M976.3 -108.04L957.33 92.83" stroke="#132e65" stroke-width="1.5"></path><path d="M957.33 92.83L957.33 92.83" stroke="#132e65" stroke-width="1.5"></path><path d="M957.33 92.83L1109.73 78.99" stroke="#132e65" stroke-width="1.5"></path><path d="M957.33 92.83L1100.33 207.53" stroke="#132e65" stroke-width="1.5"></path><path d="M995.97 494.03L995.97 494.03" stroke="#132e65" stroke-width="1.5"></path><path d="M995.97 494.03L1139.19 543.83" stroke="#132e65" stroke-width="1.5"></path><path d="M995.97 494.03L976.24 690.85" stroke="#132e65" stroke-width="1.5"></path><path d="M995.97 494.03L1126.67 691.43" stroke="#132e65" stroke-width="1.5"></path><path d="M976.24 690.85L976.24 690.85" stroke="#132e65" stroke-width="1.5"></path><path d="M976.24 690.85L1126.67 691.43" stroke="#132e65" stroke-width="1.5"></path><path d="M976.24 690.85L1139.19 543.83" stroke="#132e65" stroke-width="1.5"></path><path d="M976.24 690.85L1269.14 646.32" stroke="#132e65" stroke-width="1.5"></path><path d="M976.24 690.85L834.85 364.38" stroke="#132e65" stroke-width="1.5"></path><path d="M1150.62 -89.83L1150.62 -89.83" stroke="#132e65" stroke-width="1.5"></path><path d="M1150.62 -89.83L1283.99 -95.53" stroke="#132e65" stroke-width="1.5"></path><path d="M1150.62 -89.83L1109.73 78.99" stroke="#132e65" stroke-width="1.5"></path><path d="M1150.62 -89.83L1301.32 49.47" stroke="#132e65" stroke-width="1.5"></path><path d="M1150.62 -89.83L1400 -50.77" stroke="#132e65" stroke-width="1.5"></path><path d="M1109.73 78.99L1109.73 78.99" stroke="#132e65" stroke-width="1.5"></path><path d="M1109.73 78.99L1100.33 207.53" stroke="#132e65" stroke-width="1.5"></path><path d="M1109.73 78.99L1301.32 49.47" stroke="#132e65" stroke-width="1.5"></path><path d="M1109.73 78.99L976.3 -108.04" stroke="#132e65" stroke-width="1.5"></path><path d="M1100.33 207.53L1100.33 207.53" stroke="#132e65" stroke-width="1.5"></path><path d="M1139.19 543.83L1139.19 543.83" stroke="#132e65" stroke-width="1.5"></path><path d="M1139.19 543.83L1126.67 691.43" stroke="#132e65" stroke-width="1.5"></path><path d="M1139.19 543.83L1269.14 646.32" stroke="#132e65" stroke-width="1.5"></path><path d="M1139.19 543.83L1275.81 355.91" stroke="#132e65" stroke-width="1.5"></path><path d="M1126.67 691.43L1126.67 691.43" stroke="#132e65" stroke-width="1.5"></path><path d="M1126.67 691.43L1269.14 646.32" stroke="#132e65" stroke-width="1.5"></path><path d="M1126.67 691.43L1440.81 668.55" stroke="#132e65" stroke-width="1.5"></path><path d="M1126.67 691.43L795.21 687.91" stroke="#132e65" stroke-width="1.5"></path><path d="M1283.99 -95.53L1283.99 -95.53" stroke="#132e65" stroke-width="1.5"></path><path d="M1283.99 -95.53L1400 -50.77" stroke="#132e65" stroke-width="1.5"></path><path d="M1283.99 -95.53L1301.32 49.47" stroke="#132e65" stroke-width="1.5"></path><path d="M1301.32 49.47L1301.32 49.47" stroke="#132e65" stroke-width="1.5"></path><path d="M1301.32 49.47L1400 -50.77" stroke="#132e65" stroke-width="1.5"></path><path d="M1307.08 243.29L1307.08 243.29" stroke="#132e65" stroke-width="1.5"></path><path d="M1307.08 243.29L1275.81 355.91" stroke="#132e65" stroke-width="1.5"></path><path d="M1307.08 243.29L1426.41 257.55" stroke="#132e65" stroke-width="1.5"></path><path d="M1307.08 243.29L1412.8 385.75" stroke="#132e65" stroke-width="1.5"></path><path d="M1275.81 355.91L1275.81 355.91" stroke="#132e65" stroke-width="1.5"></path><path d="M1275.81 355.91L1412.8 385.75" stroke="#132e65" stroke-width="1.5"></path><path d="M1275.81 355.91L1426.41 257.55" stroke="#132e65" stroke-width="1.5"></path><path d="M1275.81 355.91L1100.33 207.53" stroke="#132e65" stroke-width="1.5"></path><path d="M1275.81 355.91L1456.8 538.89" stroke="#132e65" stroke-width="1.5"></path><path d="M1269.14 646.32L1269.14 646.32" stroke="#132e65" stroke-width="1.5"></path><path d="M1269.14 646.32L1440.81 668.55" stroke="#132e65" stroke-width="1.5"></path><path d="M1269.14 646.32L1456.8 538.89" stroke="#132e65" stroke-width="1.5"></path><path d="M1269.14 646.32L1275.81 355.91" stroke="#132e65" stroke-width="1.5"></path><path d="M1269.14 646.32L1551.24 557.28" stroke="#132e65" stroke-width="1.5"></path><path d="M1400 -50.77L1400 -50.77" stroke="#132e65" stroke-width="1.5"></path><path d="M1400 -50.77L1450.58 51.5" stroke="#132e65" stroke-width="1.5"></path><path d="M1400 -50.77L1569.13 -109.91" stroke="#132e65" stroke-width="1.5"></path><path d="M1450.58 51.5L1450.58 51.5" stroke="#132e65" stroke-width="1.5"></path><path d="M1450.58 51.5L1595.4 71.17" stroke="#132e65" stroke-width="1.5"></path><path d="M1450.58 51.5L1301.32 49.47" stroke="#132e65" stroke-width="1.5"></path><path d="M1450.58 51.5L1569.13 -109.91" stroke="#132e65" stroke-width="1.5"></path><path d="M1426.41 257.55L1426.41 257.55" stroke="#132e65" stroke-width="1.5"></path><path d="M1426.41 257.55L1412.8 385.75" stroke="#132e65" stroke-width="1.5"></path><path d="M1426.41 257.55L1597.21 231.5" stroke="#132e65" stroke-width="1.5"></path><path d="M1412.8 385.75L1412.8 385.75" stroke="#132e65" stroke-width="1.5"></path><path d="M1412.8 385.75L1456.8 538.89" stroke="#132e65" stroke-width="1.5"></path><path d="M1456.8 538.89L1456.8 538.89" stroke="#132e65" stroke-width="1.5"></path><path d="M1456.8 538.89L1551.24 557.28" stroke="#132e65" stroke-width="1.5"></path><path d="M1456.8 538.89L1440.81 668.55" stroke="#132e65" stroke-width="1.5"></path><path d="M1440.81 668.55L1440.81 668.55" stroke="#132e65" stroke-width="1.5"></path><path d="M1440.81 668.55L1578.29 710.27" stroke="#132e65" stroke-width="1.5"></path><path d="M1440.81 668.55L1551.24 557.28" stroke="#132e65" stroke-width="1.5"></path><path d="M1440.81 668.55L1412.8 385.75" stroke="#132e65" stroke-width="1.5"></path><path d="M1569.13 -109.91L1569.13 -109.91" stroke="#132e65" stroke-width="1.5"></path><path d="M1569.13 -109.91L1595.4 71.17" stroke="#132e65" stroke-width="1.5"></path><path d="M1569.13 -109.91L1283.99 -95.53" stroke="#132e65" stroke-width="1.5"></path><path d="M1569.13 -109.91L1301.32 49.47" stroke="#132e65" stroke-width="1.5"></path><path d="M1569.13 -109.91L1597.21 231.5" stroke="#132e65" stroke-width="1.5"></path><path d="M1595.4 71.17L1595.4 71.17" stroke="#132e65" stroke-width="1.5"></path><path d="M1595.4 71.17L1597.21 231.5" stroke="#132e65" stroke-width="1.5"></path><path d="M1595.4 71.17L1400 -50.77" stroke="#132e65" stroke-width="1.5"></path><path d="M1595.4 71.17L1426.41 257.55" stroke="#132e65" stroke-width="1.5"></path><path d="M1595.4 71.17L1609.92 351.24" stroke="#132e65" stroke-width="1.5"></path><path d="M1597.21 231.5L1597.21 231.5" stroke="#132e65" stroke-width="1.5"></path><path d="M1597.21 231.5L1609.92 351.24" stroke="#132e65" stroke-width="1.5"></path><path d="M1597.21 231.5L1450.58 51.5" stroke="#132e65" stroke-width="1.5"></path><path d="M1597.21 231.5L1412.8 385.75" stroke="#132e65" stroke-width="1.5"></path><path d="M1609.92 351.24L1609.92 351.24" stroke="#132e65" stroke-width="1.5"></path><path d="M1609.92 351.24L1412.8 385.75" stroke="#132e65" stroke-width="1.5"></path><path d="M1609.92 351.24L1426.41 257.55" stroke="#132e65" stroke-width="1.5"></path><path d="M1609.92 351.24L1551.24 557.28" stroke="#132e65" stroke-width="1.5"></path><path d="M1609.92 351.24L1456.8 538.89" stroke="#132e65" stroke-width="1.5"></path><path d="M1551.24 557.28L1551.24 557.28" stroke="#132e65" stroke-width="1.5"></path><path d="M1551.24 557.28L1578.29 710.27" stroke="#132e65" stroke-width="1.5"></path><path d="M1551.24 557.28L1412.8 385.75" stroke="#132e65" stroke-width="1.5"></path><path d="M1578.29 710.27L1578.29 710.27" stroke="#132e65" stroke-width="1.5"></path><circle r="5" cx="-68.62" cy="392.69" fill="#132e65"></circle><circle r="5" cx="-79.49" cy="501.89" fill="#132e65"></circle><circle r="5" cx="-53.75" cy="675.79" fill="#132e65"></circle><circle r="5" cx="61.55" cy="347.9" fill="#132e65"></circle><circle r="5" cx="93.49" cy="511.43" fill="#132e65"></circle><circle r="5" cx="45.76" cy="663.58" fill="#132e65"></circle><circle r="5" cx="218.5" cy="351.86" fill="#132e65"></circle><circle r="5" cx="215.43" cy="523.81" fill="#132e65"></circle><circle r="5" cx="218.29" cy="670.92" fill="#132e65"></circle><circle r="5" cx="366.83" cy="406.44" fill="#132e65"></circle><circle r="5" cx="369.88" cy="512.72" fill="#132e65"></circle><circle r="5" cx="402.59" cy="654.51" fill="#132e65"></circle><circle r="5" cx="541.39" cy="405.11" fill="#132e65"></circle><circle r="5" cx="537.47" cy="499.3" fill="#132e65"></circle><circle r="5" cx="503.85" cy="667.7" fill="#132e65"></circle><circle r="5" cx="702.29" cy="201.64" fill="#132e65"></circle><circle r="5" cx="710.86" cy="379.95" fill="#132e65"></circle><circle r="5" cx="834.85" cy="364.38" fill="#132e65"></circle><circle r="5" cx="795.21" cy="687.91" fill="#132e65"></circle><circle r="5" cx="976.3" cy="-108.04" fill="#132e65"></circle><circle r="5" cx="957.33" cy="92.83" fill="#132e65"></circle><circle r="5" cx="995.97" cy="494.03" fill="#132e65"></circle><circle r="5" cx="976.24" cy="690.85" fill="#132e65"></circle><circle r="5" cx="1150.62" cy="-89.83" fill="#132e65"></circle><circle r="5" cx="1109.73" cy="78.99" fill="#132e65"></circle><circle r="5" cx="1100.33" cy="207.53" fill="#132e65"></circle><circle r="5" cx="1139.19" cy="543.83" fill="#132e65"></circle><circle r="5" cx="1126.67" cy="691.43" fill="#132e65"></circle><circle r="5" cx="1283.99" cy="-95.53" fill="#132e65"></circle><circle r="5" cx="1301.32" cy="49.47" fill="#132e65"></circle><circle r="5" cx="1307.08" cy="243.29" fill="#132e65"></circle><circle r="5" cx="1275.81" cy="355.91" fill="#132e65"></circle><circle r="5" cx="1269.14" cy="646.32" fill="#132e65"></circle><circle r="5" cx="1400" cy="-50.77" fill="#132e65"></circle><circle r="5" cx="1450.58" cy="51.5" fill="#132e65"></circle><circle r="5" cx="1426.41" cy="257.55" fill="#132e65"></circle><circle r="5" cx="1412.8" cy="385.75" fill="#132e65"></circle><circle r="5" cx="1456.8" cy="538.89" fill="#132e65"></circle><circle r="5" cx="1440.81" cy="668.55" fill="#132e65"></circle><circle r="5" cx="1569.13" cy="-109.91" fill="#132e65"></circle><circle r="5" cx="1595.4" cy="71.17" fill="#132e65"></circle><circle r="5" cx="1597.21" cy="231.5" fill="#132e65"></circle><circle r="5" cx="1609.92" cy="351.24" fill="#132e65"></circle><circle r="5" cx="1551.24" cy="557.28" fill="#132e65"></circle><circle r="5" cx="1578.29" cy="710.27" fill="#132e65"></circle><path d="M-48.16 556.04L-48.16 556.04" stroke="hsl(228.70000000000005, 70.4%, 50%)" stroke-width="1.5"></path><path d="M-48.16 556.04L-71.45 640.88" stroke="hsl(228.70000000000005, 70.4%, 50%)" stroke-width="1.5"></path><path d="M-48.16 556.04L77.27 509.15" stroke="hsl(228.70000000000005, 70.4%, 50%)" stroke-width="1.5"></path><path d="M-48.16 556.04L105.55 682.27" stroke="hsl(228.70000000000005, 70.4%, 50%)" stroke-width="1.5"></path><path d="M-48.16 556.04L234.7 543.91" stroke="hsl(228.70000000000005, 70.4%, 50%)" stroke-width="1.5"></path><path d="M-48.16 556.04L201.49 706.59" stroke="hsl(228.70000000000005, 70.4%, 50%)" stroke-width="1.5"></path><path d="M234.7 543.91L234.7 543.91" stroke="hsl(228.70000000000005, 70.4%, 50%)" stroke-width="1.5"></path><path d="M234.7 543.91L77.27 509.15" stroke="hsl(228.70000000000005, 70.4%, 50%)" stroke-width="1.5"></path><path d="M234.7 543.91L201.49 706.59" stroke="hsl(228.70000000000005, 70.4%, 50%)" stroke-width="1.5"></path><path d="M234.7 543.91L359.73 661.35" stroke="hsl(228.70000000000005, 70.4%, 50%)" stroke-width="1.5"></path><path d="M234.7 543.91L105.55 682.27" stroke="hsl(228.70000000000005, 70.4%, 50%)" stroke-width="1.5"></path><path d="M234.7 543.91L489.24 509.8" stroke="hsl(228.70000000000005, 70.4%, 50%)" stroke-width="1.5"></path><path d="M823.87 514.03L823.87 514.03" stroke="hsl(228.70000000000005, 70.4%, 50%)" stroke-width="1.5"></path><path d="M823.87 514.03L817.12 373.82" stroke="hsl(228.70000000000005, 70.4%, 50%)" stroke-width="1.5"></path><path d="M823.87 514.03L679.78 549.21" stroke="hsl(228.70000000000005, 70.4%, 50%)" stroke-width="1.5"></path><path d="M823.87 514.03L836.89 668.22" stroke="hsl(228.70000000000005, 70.4%, 50%)" stroke-width="1.5"></path><path d="M823.87 514.03L989.8 505.2" stroke="hsl(228.70000000000005, 70.4%, 50%)" stroke-width="1.5"></path><path d="M985.77 660.44L985.77 660.44" stroke="hsl(228.70000000000005, 70.4%, 50%)" stroke-width="1.5"></path><path d="M985.77 660.44L1115.44 704.44" stroke="hsl(228.70000000000005, 70.4%, 50%)" stroke-width="1.5"></path><path d="M985.77 660.44L836.89 668.22" stroke="hsl(228.70000000000005, 70.4%, 50%)" stroke-width="1.5"></path><path d="M1115.69 404.84L1115.69 404.84" stroke="hsl(228.70000000000005, 70.4%, 50%)" stroke-width="1.5"></path><path d="M1115.69 404.84L1119.97 502.94" stroke="hsl(228.70000000000005, 70.4%, 50%)" stroke-width="1.5"></path><path d="M1115.69 404.84L985.59 374.7" stroke="hsl(228.70000000000005, 70.4%, 50%)" stroke-width="1.5"></path><path d="M1115.69 404.84L1103.26 255.23" stroke="hsl(228.70000000000005, 70.4%, 50%)" stroke-width="1.5"></path><path d="M1115.69 404.84L989.8 505.2" stroke="hsl(228.70000000000005, 70.4%, 50%)" stroke-width="1.5"></path><path d="M1115.69 404.84L947.58 256.95" stroke="hsl(228.70000000000005, 70.4%, 50%)" stroke-width="1.5"></path><path d="M1609.18 41.68L1609.18 41.68" stroke="hsl(228.70000000000005, 70.4%, 50%)" stroke-width="1.5"></path><path d="M1609.18 41.68L1601.5 -62.51" stroke="hsl(228.70000000000005, 70.4%, 50%)" stroke-width="1.5"></path><path d="M-71.45 640.88L-71.45 640.88" stroke="hsl(228.70000000000005, 70.4%, 50%)" stroke-width="1.5"></path><path d="M-71.45 640.88L105.55 682.27" stroke="hsl(228.70000000000005, 70.4%, 50%)" stroke-width="1.5"></path><path d="M-71.45 640.88L77.27 509.15" stroke="hsl(228.70000000000005, 70.4%, 50%)" stroke-width="1.5"></path><path d="M77.27 509.15L77.27 509.15" stroke="hsl(228.70000000000005, 70.4%, 50%)" stroke-width="1.5"></path><path d="M105.55 682.27L105.55 682.27" stroke="hsl(228.70000000000005, 70.4%, 50%)" stroke-width="1.5"></path><path d="M105.55 682.27L201.49 706.59" stroke="hsl(228.70000000000005, 70.4%, 50%)" stroke-width="1.5"></path><path d="M105.55 682.27L77.27 509.15" stroke="hsl(228.70000000000005, 70.4%, 50%)" stroke-width="1.5"></path><path d="M201.49 706.59L201.49 706.59" stroke="hsl(228.70000000000005, 70.4%, 50%)" stroke-width="1.5"></path><path d="M201.49 706.59L359.73 661.35" stroke="hsl(228.70000000000005, 70.4%, 50%)" stroke-width="1.5"></path><path d="M359.73 661.35L359.73 661.35" stroke="hsl(228.70000000000005, 70.4%, 50%)" stroke-width="1.5"></path><path d="M359.73 661.35L547.94 649.49" stroke="hsl(228.70000000000005, 70.4%, 50%)" stroke-width="1.5"></path><path d="M359.73 661.35L489.24 509.8" stroke="hsl(228.70000000000005, 70.4%, 50%)" stroke-width="1.5"></path><path d="M359.73 661.35L105.55 682.27" stroke="hsl(228.70000000000005, 70.4%, 50%)" stroke-width="1.5"></path><path d="M489.24 509.8L489.24 509.8" stroke="hsl(228.70000000000005, 70.4%, 50%)" stroke-width="1.5"></path><path d="M489.24 509.8L547.94 649.49" stroke="hsl(228.70000000000005, 70.4%, 50%)" stroke-width="1.5"></path><path d="M489.24 509.8L679.78 549.21" stroke="hsl(228.70000000000005, 70.4%, 50%)" stroke-width="1.5"></path><path d="M489.24 509.8L651.8 380.52" stroke="hsl(228.70000000000005, 70.4%, 50%)" stroke-width="1.5"></path><path d="M489.24 509.8L703.74 644.91" stroke="hsl(228.70000000000005, 70.4%, 50%)" stroke-width="1.5"></path><path d="M547.94 649.49L547.94 649.49" stroke="hsl(228.70000000000005, 70.4%, 50%)" stroke-width="1.5"></path><path d="M547.94 649.49L703.74 644.91" stroke="hsl(228.70000000000005, 70.4%, 50%)" stroke-width="1.5"></path><path d="M547.94 649.49L679.78 549.21" stroke="hsl(228.70000000000005, 70.4%, 50%)" stroke-width="1.5"></path><path d="M651.8 380.52L651.8 380.52" stroke="hsl(228.70000000000005, 70.4%, 50%)" stroke-width="1.5"></path><path d="M651.8 380.52L817.12 373.82" stroke="hsl(228.70000000000005, 70.4%, 50%)" stroke-width="1.5"></path><path d="M651.8 380.52L679.78 549.21" stroke="hsl(228.70000000000005, 70.4%, 50%)" stroke-width="1.5"></path><path d="M679.78 549.21L679.78 549.21" stroke="hsl(228.70000000000005, 70.4%, 50%)" stroke-width="1.5"></path><path d="M679.78 549.21L703.74 644.91" stroke="hsl(228.70000000000005, 70.4%, 50%)" stroke-width="1.5"></path><path d="M703.74 644.91L703.74 644.91" stroke="hsl(228.70000000000005, 70.4%, 50%)" stroke-width="1.5"></path><path d="M703.74 644.91L836.89 668.22" stroke="hsl(228.70000000000005, 70.4%, 50%)" stroke-width="1.5"></path><path d="M703.74 644.91L823.87 514.03" stroke="hsl(228.70000000000005, 70.4%, 50%)" stroke-width="1.5"></path><path d="M817.12 373.82L817.12 373.82" stroke="hsl(228.70000000000005, 70.4%, 50%)" stroke-width="1.5"></path><path d="M817.12 373.82L985.59 374.7" stroke="hsl(228.70000000000005, 70.4%, 50%)" stroke-width="1.5"></path><path d="M836.89 668.22L836.89 668.22" stroke="hsl(228.70000000000005, 70.4%, 50%)" stroke-width="1.5"></path><path d="M947.58 256.95L947.58 256.95" stroke="hsl(228.70000000000005, 70.4%, 50%)" stroke-width="1.5"></path><path d="M947.58 256.95L985.59 374.7" stroke="hsl(228.70000000000005, 70.4%, 50%)" stroke-width="1.5"></path><path d="M947.58 256.95L1103.26 255.23" stroke="hsl(228.70000000000005, 70.4%, 50%)" stroke-width="1.5"></path><path d="M947.58 256.95L817.12 373.82" stroke="hsl(228.70000000000005, 70.4%, 50%)" stroke-width="1.5"></path><path d="M985.59 374.7L985.59 374.7" stroke="hsl(228.70000000000005, 70.4%, 50%)" stroke-width="1.5"></path><path d="M985.59 374.7L989.8 505.2" stroke="hsl(228.70000000000005, 70.4%, 50%)" stroke-width="1.5"></path><path d="M985.59 374.7L1103.26 255.23" stroke="hsl(228.70000000000005, 70.4%, 50%)" stroke-width="1.5"></path><path d="M985.59 374.7L1119.97 502.94" stroke="hsl(228.70000000000005, 70.4%, 50%)" stroke-width="1.5"></path><path d="M989.8 505.2L989.8 505.2" stroke="hsl(228.70000000000005, 70.4%, 50%)" stroke-width="1.5"></path><path d="M989.8 505.2L1119.97 502.94" stroke="hsl(228.70000000000005, 70.4%, 50%)" stroke-width="1.5"></path><path d="M989.8 505.2L985.77 660.44" stroke="hsl(228.70000000000005, 70.4%, 50%)" stroke-width="1.5"></path><path d="M1161.03 72.8L1161.03 72.8" stroke="hsl(228.70000000000005, 70.4%, 50%)" stroke-width="1.5"></path><path d="M1161.03 72.8L1250.75 48.63" stroke="hsl(228.70000000000005, 70.4%, 50%)" stroke-width="1.5"></path><path d="M1161.03 72.8L1277.5 195.82" stroke="hsl(228.70000000000005, 70.4%, 50%)" stroke-width="1.5"></path><path d="M1103.26 255.23L1103.26 255.23" stroke="hsl(228.70000000000005, 70.4%, 50%)" stroke-width="1.5"></path><path d="M1119.97 502.94L1119.97 502.94" stroke="hsl(228.70000000000005, 70.4%, 50%)" stroke-width="1.5"></path><path d="M1115.44 704.44L1115.44 704.44" stroke="hsl(228.70000000000005, 70.4%, 50%)" stroke-width="1.5"></path><path d="M1115.44 704.44L1273.15 709.82" stroke="hsl(228.70000000000005, 70.4%, 50%)" stroke-width="1.5"></path><path d="M1275.59 -77.59L1275.59 -77.59" stroke="hsl(228.70000000000005, 70.4%, 50%)" stroke-width="1.5"></path><path d="M1275.59 -77.59L1397.45 -49.27" stroke="hsl(228.70000000000005, 70.4%, 50%)" stroke-width="1.5"></path><path d="M1275.59 -77.59L1250.75 48.63" stroke="hsl(228.70000000000005, 70.4%, 50%)" stroke-width="1.5"></path><path d="M1275.59 -77.59L1161.03 72.8" stroke="hsl(228.70000000000005, 70.4%, 50%)" stroke-width="1.5"></path><path d="M1275.59 -77.59L1456.55 40.88" stroke="hsl(228.70000000000005, 70.4%, 50%)" stroke-width="1.5"></path><path d="M1275.59 -77.59L1277.5 195.82" stroke="hsl(228.70000000000005, 70.4%, 50%)" stroke-width="1.5"></path><path d="M1250.75 48.63L1250.75 48.63" stroke="hsl(228.70000000000005, 70.4%, 50%)" stroke-width="1.5"></path><path d="M1250.75 48.63L1277.5 195.82" stroke="hsl(228.70000000000005, 70.4%, 50%)" stroke-width="1.5"></path><path d="M1250.75 48.63L1397.45 -49.27" stroke="hsl(228.70000000000005, 70.4%, 50%)" stroke-width="1.5"></path><path d="M1250.75 48.63L1456.55 40.88" stroke="hsl(228.70000000000005, 70.4%, 50%)" stroke-width="1.5"></path><path d="M1250.75 48.63L1103.26 255.23" stroke="hsl(228.70000000000005, 70.4%, 50%)" stroke-width="1.5"></path><path d="M1277.5 195.82L1277.5 195.82" stroke="hsl(228.70000000000005, 70.4%, 50%)" stroke-width="1.5"></path><path d="M1277.5 195.82L1424.22 247.02" stroke="hsl(228.70000000000005, 70.4%, 50%)" stroke-width="1.5"></path><path d="M1277.5 195.82L1103.26 255.23" stroke="hsl(228.70000000000005, 70.4%, 50%)" stroke-width="1.5"></path><path d="M1277.5 195.82L1432.3 363.91" stroke="hsl(228.70000000000005, 70.4%, 50%)" stroke-width="1.5"></path><path d="M1309.47 517.75L1309.47 517.75" stroke="hsl(228.70000000000005, 70.4%, 50%)" stroke-width="1.5"></path><path d="M1309.47 517.75L1397.63 488.06" stroke="hsl(228.70000000000005, 70.4%, 50%)" stroke-width="1.5"></path><path d="M1309.47 517.75L1399.07 678.7" stroke="hsl(228.70000000000005, 70.4%, 50%)" stroke-width="1.5"></path><path d="M1309.47 517.75L1119.97 502.94" stroke="hsl(228.70000000000005, 70.4%, 50%)" stroke-width="1.5"></path><path d="M1273.15 709.82L1273.15 709.82" stroke="hsl(228.70000000000005, 70.4%, 50%)" stroke-width="1.5"></path><path d="M1273.15 709.82L1399.07 678.7" stroke="hsl(228.70000000000005, 70.4%, 50%)" stroke-width="1.5"></path><path d="M1273.15 709.82L1309.47 517.75" stroke="hsl(228.70000000000005, 70.4%, 50%)" stroke-width="1.5"></path><path d="M1397.45 -49.27L1397.45 -49.27" stroke="hsl(228.70000000000005, 70.4%, 50%)" stroke-width="1.5"></path><path d="M1397.45 -49.27L1456.55 40.88" stroke="hsl(228.70000000000005, 70.4%, 50%)" stroke-width="1.5"></path><path d="M1397.45 -49.27L1601.5 -62.51" stroke="hsl(228.70000000000005, 70.4%, 50%)" stroke-width="1.5"></path><path d="M1397.45 -49.27L1609.18 41.68" stroke="hsl(228.70000000000005, 70.4%, 50%)" stroke-width="1.5"></path><path d="M1456.55 40.88L1456.55 40.88" stroke="hsl(228.70000000000005, 70.4%, 50%)" stroke-width="1.5"></path><path d="M1456.55 40.88L1609.18 41.68" stroke="hsl(228.70000000000005, 70.4%, 50%)" stroke-width="1.5"></path><path d="M1456.55 40.88L1601.5 -62.51" stroke="hsl(228.70000000000005, 70.4%, 50%)" stroke-width="1.5"></path><path d="M1424.22 247.02L1424.22 247.02" stroke="hsl(228.70000000000005, 70.4%, 50%)" stroke-width="1.5"></path><path d="M1424.22 247.02L1432.3 363.91" stroke="hsl(228.70000000000005, 70.4%, 50%)" stroke-width="1.5"></path><path d="M1424.22 247.02L1559.87 223.18" stroke="hsl(228.70000000000005, 70.4%, 50%)" stroke-width="1.5"></path><path d="M1424.22 247.02L1588.2 362.65" stroke="hsl(228.70000000000005, 70.4%, 50%)" stroke-width="1.5"></path><path d="M1424.22 247.02L1456.55 40.88" stroke="hsl(228.70000000000005, 70.4%, 50%)" stroke-width="1.5"></path><path d="M1424.22 247.02L1397.63 488.06" stroke="hsl(228.70000000000005, 70.4%, 50%)" stroke-width="1.5"></path><path d="M1432.3 363.91L1432.3 363.91" stroke="hsl(228.70000000000005, 70.4%, 50%)" stroke-width="1.5"></path><path d="M1432.3 363.91L1397.63 488.06" stroke="hsl(228.70000000000005, 70.4%, 50%)" stroke-width="1.5"></path><path d="M1397.63 488.06L1397.63 488.06" stroke="hsl(228.70000000000005, 70.4%, 50%)" stroke-width="1.5"></path><path d="M1397.63 488.06L1579.44 544.96" stroke="hsl(228.70000000000005, 70.4%, 50%)" stroke-width="1.5"></path><path d="M1399.07 678.7L1399.07 678.7" stroke="hsl(228.70000000000005, 70.4%, 50%)" stroke-width="1.5"></path><path d="M1399.07 678.7L1573.02 698.85" stroke="hsl(228.70000000000005, 70.4%, 50%)" stroke-width="1.5"></path><path d="M1399.07 678.7L1397.63 488.06" stroke="hsl(228.70000000000005, 70.4%, 50%)" stroke-width="1.5"></path><path d="M1399.07 678.7L1579.44 544.96" stroke="hsl(228.70000000000005, 70.4%, 50%)" stroke-width="1.5"></path><path d="M1399.07 678.7L1115.44 704.44" stroke="hsl(228.70000000000005, 70.4%, 50%)" stroke-width="1.5"></path><path d="M1601.5 -62.51L1601.5 -62.51" stroke="hsl(228.70000000000005, 70.4%, 50%)" stroke-width="1.5"></path><path d="M1559.87 223.18L1559.87 223.18" stroke="hsl(228.70000000000005, 70.4%, 50%)" stroke-width="1.5"></path><path d="M1559.87 223.18L1588.2 362.65" stroke="hsl(228.70000000000005, 70.4%, 50%)" stroke-width="1.5"></path><path d="M1588.2 362.65L1588.2 362.65" stroke="hsl(228.70000000000005, 70.4%, 50%)" stroke-width="1.5"></path><path d="M1588.2 362.65L1432.3 363.91" stroke="hsl(228.70000000000005, 70.4%, 50%)" stroke-width="1.5"></path><path d="M1588.2 362.65L1579.44 544.96" stroke="hsl(228.70000000000005, 70.4%, 50%)" stroke-width="1.5"></path><path d="M1588.2 362.65L1397.63 488.06" stroke="hsl(228.70000000000005, 70.4%, 50%)" stroke-width="1.5"></path><path d="M1588.2 362.65L1309.47 517.75" stroke="hsl(228.70000000000005, 70.4%, 50%)" stroke-width="1.5"></path><path d="M1579.44 544.96L1579.44 544.96" stroke="hsl(228.70000000000005, 70.4%, 50%)" stroke-width="1.5"></path><path d="M1579.44 544.96L1573.02 698.85" stroke="hsl(228.70000000000005, 70.4%, 50%)" stroke-width="1.5"></path><path d="M1579.44 544.96L1432.3 363.91" stroke="hsl(228.70000000000005, 70.4%, 50%)" stroke-width="1.5"></path><path d="M1573.02 698.85L1573.02 698.85" stroke="hsl(228.70000000000005, 70.4%, 50%)" stroke-width="1.5"></path><path d="M1573.02 698.85L1397.63 488.06" stroke="hsl(228.70000000000005, 70.4%, 50%)" stroke-width="1.5"></path><path d="M1573.02 698.85L1273.15 709.82" stroke="hsl(228.70000000000005, 70.4%, 50%)" stroke-width="1.5"></path><path d="M1573.02 698.85L1309.47 517.75" stroke="hsl(228.70000000000005, 70.4%, 50%)" stroke-width="1.5"></path><path d="M1573.02 698.85L1588.2 362.65" stroke="hsl(228.70000000000005, 70.4%, 50%)" stroke-width="1.5"></path><circle r="25" cx="-48.16" cy="556.04" fill="url(&quot;#SvgjsRadialGradient1021&quot;)"></circle><circle r="25" cx="234.7" cy="543.91" fill="url(&quot;#SvgjsRadialGradient1021&quot;)"></circle><circle r="25" cx="823.87" cy="514.03" fill="url(&quot;#SvgjsRadialGradient1021&quot;)"></circle><circle r="25" cx="985.77" cy="660.44" fill="url(&quot;#SvgjsRadialGradient1021&quot;)"></circle><circle r="25" cx="1115.69" cy="404.84" fill="url(&quot;#SvgjsRadialGradient1021&quot;)"></circle><circle r="25" cx="1609.18" cy="41.68" fill="url(&quot;#SvgjsRadialGradient1021&quot;)"></circle><circle r="5" cx="-71.45" cy="640.88" fill="#8e9bd3"></circle><circle r="5" cx="77.27" cy="509.15" fill="#8e9bd3"></circle><circle r="5" cx="105.55" cy="682.27" fill="#8e9bd3"></circle><circle r="5" cx="201.49" cy="706.59" fill="#8e9bd3"></circle><circle r="5" cx="359.73" cy="661.35" fill="#8e9bd3"></circle><circle r="5" cx="489.24" cy="509.8" fill="#8e9bd3"></circle><circle r="5" cx="547.94" cy="649.49" fill="#8e9bd3"></circle><circle r="5" cx="651.8" cy="380.52" fill="#8e9bd3"></circle><circle r="5" cx="679.78" cy="549.21" fill="#8e9bd3"></circle><circle r="5" cx="703.74" cy="644.91" fill="#8e9bd3"></circle><circle r="5" cx="817.12" cy="373.82" fill="#8e9bd3"></circle><circle r="5" cx="836.89" cy="668.22" fill="#8e9bd3"></circle><circle r="5" cx="947.58" cy="256.95" fill="#8e9bd3"></circle><circle r="5" cx="985.59" cy="374.7" fill="#8e9bd3"></circle><circle r="5" cx="989.8" cy="505.2" fill="#8e9bd3"></circle><circle r="5" cx="1161.03" cy="72.8" fill="#8e9bd3"></circle><circle r="5" cx="1103.26" cy="255.23" fill="#8e9bd3"></circle><circle r="5" cx="1119.97" cy="502.94" fill="#8e9bd3"></circle><circle r="5" cx="1115.44" cy="704.44" fill="#8e9bd3"></circle><circle r="5" cx="1275.59" cy="-77.59" fill="#8e9bd3"></circle><circle r="5" cx="1250.75" cy="48.63" fill="#8e9bd3"></circle><circle r="5" cx="1277.5" cy="195.82" fill="#8e9bd3"></circle><circle r="5" cx="1309.47" cy="517.75" fill="#8e9bd3"></circle><circle r="5" cx="1273.15" cy="709.82" fill="#8e9bd3"></circle><circle r="5" cx="1397.45" cy="-49.27" fill="#8e9bd3"></circle><circle r="5" cx="1456.55" cy="40.88" fill="#8e9bd3"></circle><circle r="5" cx="1424.22" cy="247.02" fill="#8e9bd3"></circle><circle r="5" cx="1432.3" cy="363.91" fill="#8e9bd3"></circle><circle r="5" cx="1397.63" cy="488.06" fill="#8e9bd3"></circle><circle r="5" cx="1399.07" cy="678.7" fill="#8e9bd3"></circle><circle r="5" cx="1601.5" cy="-62.51" fill="#8e9bd3"></circle><circle r="5" cx="1559.87" cy="223.18" fill="#8e9bd3"></circle><circle r="5" cx="1588.2" cy="362.65" fill="#8e9bd3"></circle><circle r="5" cx="1579.44" cy="544.96" fill="#8e9bd3"></circle><circle r="5" cx="1573.02" cy="698.85" fill="#8e9bd3"></circle></g><defs><mask id="SvgjsMask1020"><rect width="1440" height="560" fill="#ffffff"></rect></mask><radialGradient id="SvgjsRadialGradient1021"><stop stop-color="#ffffff" offset="0.1"></stop><stop stop-color="rgba(29, 55, 167, 1)" offset="0.2"></stop><stop stop-color="rgba(29, 55, 167, 0)" offset="1"></stop></radialGradient></defs></svg>