<svg xmlns="http://www.w3.org/2000/svg" version="1.1" xmlns:xlink="http://www.w3.org/1999/xlink" xmlns:svgjs="http://svgjs.dev/svgjs" width="1440" height="560" preserveAspectRatio="none" viewBox="0 0 1440 560"><g mask="url(&quot;#SvgjsMask1034&quot;)" fill="none"><rect width="1440" height="560" x="0" y="0" fill="rgba(255, 255, 255, 1)"></rect><path d="M1416.8242957884422 235.65025907656735L1325.1552436899944 76.52477522757107 1242.4754621113289 214.12703931416644z" fill="rgba(190, 210, 233, 0.4)" class="triangle-float3"></path><path d="M1155.01 118.27 a174.35 174.35 0 1 0 348.7 0 a174.35 174.35 0 1 0 -348.7 0z" fill="rgba(190, 210, 233, 0.4)" class="triangle-float3"></path><path d="M73.764,266.182C121.995,264.06,151.721,218.266,173.798,175.332C193.535,136.948,204.113,92.158,182.442,54.832C160.846,17.636,116.724,5.139,73.764,3.037C25.619,0.682,-29.025,2.632,-55.036,43.215C-82.446,85.98,-68.184,140.878,-42.776,184.862C-17.381,228.824,23.043,268.414,73.764,266.182" fill="rgba(190, 210, 233, 0.4)" class="triangle-float2"></path><path d="M902.2953847052598 240.6560755483728L815.8130664542673 313.2233568961368 888.3803478020313 399.70567514712934 974.8626660530239 327.1383937993653z" fill="rgba(190, 210, 233, 0.4)" class="triangle-float2"></path><path d="M251.206,317.705C281.361,317.438,313.106,312.77,330.182,287.914C349.482,259.821,353.709,222.491,337.045,192.759C320.055,162.445,285.955,146.596,251.206,147.007C217.187,147.409,185.71,165.219,168.814,194.748C152.031,224.08,150.958,261.262,169.77,289.336C186.92,314.93,220.398,317.978,251.206,317.705" fill="rgba(190, 210, 233, 0.4)" class="triangle-float3"></path><path d="M482.93 79.17 a117.73 117.73 0 1 0 235.46 0 a117.73 117.73 0 1 0 -235.46 0z" fill="rgba(190, 210, 233, 0.4)" class="triangle-float2"></path><path d="M511.5872126249654 36.64307080760301L330.0325654536734 55.55031378231004 421.55563907310176 186.25880894280846z" fill="rgba(190, 210, 233, 0.4)" class="triangle-float1"></path><path d="M974.876,349.799C1024.468,346.599,1053.757,300.048,1078.399,256.893C1102.747,214.253,1130.133,164.178,1104.928,122.039C1080.069,80.478,1023.143,79.865,974.876,83.815C934.605,87.111,900.036,107.406,877.115,140.682C849.744,180.419,824.863,228.227,845.297,271.937C868.17,320.864,920.979,353.277,974.876,349.799" fill="rgba(190, 210, 233, 0.4)" class="triangle-float3"></path><path d="M531.809,290.591C546.885,290.373,559.864,281.712,568.133,269.103C577.46,254.88,584.072,237.549,576.619,222.261C568.374,205.35,550.607,193.822,531.809,194.595C514.043,195.325,500.975,209.83,492.957,225.7C485.79,239.885,485.457,256.544,493.621,270.18C501.568,283.453,516.341,290.814,531.809,290.591" fill="rgba(190, 210, 233, 0.4)" class="triangle-float2"></path><path d="M1370.1716891054618 576.1380029036355L1468.157192423382 471.0614151094782 1265.0951013113045 478.15249958571536z" fill="rgba(190, 210, 233, 0.4)" class="triangle-float3"></path><path d="M953.83 452.17 a110.31 110.31 0 1 0 220.62 0 a110.31 110.31 0 1 0 -220.62 0z" fill="rgba(190, 210, 233, 0.4)" class="triangle-float2"></path></g><defs><mask id="SvgjsMask1034"><rect width="1440" height="560" fill="#ffffff"></rect></mask><style>
                @keyframes float1 {
                    0%{transform: translate(0, 0)}
                    50%{transform: translate(-10px, 0)}
                    100%{transform: translate(0, 0)}
                }

                .triangle-float1 {
                    animation: float1 5s infinite;
                }

                @keyframes float2 {
                    0%{transform: translate(0, 0)}
                    50%{transform: translate(-5px, -5px)}
                    100%{transform: translate(0, 0)}
                }

                .triangle-float2 {
                    animation: float2 4s infinite;
                }

                @keyframes float3 {
                    0%{transform: translate(0, 0)}
                    50%{transform: translate(0, -10px)}
                    100%{transform: translate(0, 0)}
                }

                .triangle-float3 {
                    animation: float3 6s infinite;
                }
            </style></defs></svg>